<?xml version="1.0" encoding="utf-8"?>
<!-- Generator: Adobe Illustrator 25.0.0, SVG Export Plug-In . SVG Version: 6.00 Build 0)  -->
<svg version="1.1" id="Layer_1" xmlns="http://www.w3.org/2000/svg" xmlns:xlink="http://www.w3.org/1999/xlink" x="0px" y="0px"
	 viewBox="0 0 77 176" enable-background="new 0 0 77 176" xml:space="preserve">
<g>
	<g>
		<linearGradient id="SVGID_1_" gradientUnits="userSpaceOnUse" x1="38.2149" y1="166.5374" x2="38.2149" y2="8.7729">
			<stop  offset="0" style="stop-color:#1A1A1A"/>
			<stop  offset="0.1297" style="stop-color:#282828"/>
			<stop  offset="0.27" style="stop-color:#333333"/>
			<stop  offset="0.5581" style="stop-color:#575757"/>
			<stop  offset="0.7393" style="stop-color:#868686"/>
			<stop  offset="0.8058" style="stop-color:#999999"/>
			<stop  offset="0.8391" style="stop-color:#929292"/>
			<stop  offset="0.8872" style="stop-color:#7F7F7F"/>
			<stop  offset="0.9438" style="stop-color:#606060"/>
			<stop  offset="1" style="stop-color:#3A3A3A"/>
		</linearGradient>
		<path fill="url(#SVGID_1_)" d="M60.019,165.455c-14.536,1.443-29.073,1.443-43.608,0c-2.488-0.25-4.569-2.42-4.643-4.788
			c-1.483-48.664-1.483-97.359,0-146.024c0.074-2.367,2.155-4.538,4.643-4.788c14.536-1.443,29.073-1.443,43.608,0
			c2.487,0.249,4.568,2.42,4.643,4.788c1.483,48.664,1.483,97.359,0,146.024C64.588,163.034,62.506,165.205,60.019,165.455z"/>
		<image overflow="visible" width="56" height="159" xlink:href="AEF598E9.png"  transform="matrix(1 0 0 1 10 8)">
		</image>
	</g>
	<g>
		<defs>
			<path id="SVGID_2_" d="M60.019,165.455c-14.536,1.443-29.073,1.443-43.608,0c-2.488-0.25-4.569-2.42-4.643-4.788
				c-1.483-48.664-1.483-97.359,0-146.024c0.074-2.367,2.155-4.538,4.643-4.788c14.536-1.443,29.073-1.443,43.608,0
				c2.487,0.249,4.568,2.42,4.643,4.788c1.483,48.664,1.483,97.359,0,146.024C64.588,163.034,62.506,165.205,60.019,165.455z"/>
		</defs>
		<clipPath id="SVGID_3_">
			<use xlink:href="#SVGID_2_"  overflow="visible"/>
		</clipPath>
		<g clip-path="url(#SVGID_3_)">
			<path fill="#4D4D4D" d="M33.683,5.949c-2.714,0.437-5.636,0.682-8.694,0.53c-0.039-0.002-0.078-0.003-0.117-0.005
				c0-0.296,0-0.456,0-0.81c-0.469,0-0.703,0-1.171,0c0,0.327,0,0.477,0,0.755C18.371,6.111,12.85,6.116,7.63,6.908
				c-0.246,0.037-0.391,0.169-0.318,0.28C7.385,7.3,7.647,7.35,7.893,7.313C13.028,6.55,18.45,6.494,23.7,6.727
				c0,0.462,0,0.656,0,0.996C18.342,7.745,12.894,7.991,7.63,8.749C7.383,8.785,7.239,8.878,7.312,8.948
				c0.073,0.07,0.334,0.091,0.581,0.056c5.18-0.729,10.534-1.003,15.807-1.072c0,0.313,0,0.442,0,0.671
				C18.334,8.835,12.93,9.229,7.63,9.929c-0.247,0.033-0.391,0.096-0.318,0.135c0.073,0.04,0.333,0.041,0.581,0.01
				c5.216-0.671,10.529-1.076,15.807-1.33c0,0.212,0,0.3,0,0.466c-5.366,0.333-10.745,0.8-16.071,1.428
				c-0.248,0.029-0.391,0.072-0.318,0.093c0.073,0.021,0.333,0.012,0.581-0.017c5.239-0.602,10.529-1.066,15.807-1.4
				c0,0.159,0,0.231,0,0.382c-5.365,0.34-10.733,0.817-16.071,1.377c-0.248,0.026-0.391,0.058-0.318,0.071
				c0.073,0.012,0.333,0.001,0.581-0.024c5.25-0.538,10.53-1.002,15.807-1.325c0,0.154,0,0.233,0,0.418
				c-5.365,0.266-10.733,0.705-16.071,1.213c-0.248,0.024-0.391,0.055-0.318,0.07c0.073,0.015,0.333,0.009,0.581-0.015
				c5.247-0.492,10.531-0.91,15.807-1.147c0,0.198,0,0.307,0,0.574c-5.363,0.127-10.744,0.494-16.071,0.981
				c-0.248,0.023-0.391,0.064-0.318,0.092c0.073,0.029,0.333,0.034,0.581,0.011c5.233-0.478,10.533-0.82,15.807-0.906
				c0,0.289,0,0.454,0,0.85c-5.356-0.065-10.768,0.21-16.071,0.721c-0.247,0.024-0.391,0.086-0.318,0.138
				c0.073,0.053,0.334,0.075,0.581,0.051c5.205-0.511,10.542-0.758,15.807-0.646c0,0.428,0,0.673,0,1.246
				c-5.336-0.293-10.806-0.117-16.071,0.477c-0.247,0.028-0.391,0.121-0.318,0.208c0.073,0.087,0.335,0.132,0.581,0.103
				c5.162-0.601,10.565-0.751,15.807-0.407c0,0.616,0,0.963,0,1.763c-5.3-0.541-10.865-0.455-16.071,0.291
				c-0.246,0.035-0.391,0.172-0.318,0.303c0.073,0.131,0.336,0.203,0.581,0.166c5.097-0.76,10.604-0.825,15.807-0.231
				c0,0.851,0,1.326,0,2.399c-5.25-0.795-10.864-0.71-16.071,0.202c-0.247,0.043-0.391,0.205-0.318,0.358
				c0.073,0.153,0.336,0.235,0.581,0.195c5.08-0.823,10.618-0.84,15.807-0.139c0,0.917,0,1.372,0,2.279
				c-5.278-0.693-10.893-0.67-16.071,0.172c-0.245,0.04-0.391,0.202-0.318,0.352c0.073,0.151,0.336,0.232,0.581,0.193
				c5.083-0.812,10.616-0.828,15.807-0.137c0,0.904,0,1.353,0,2.249c-5.279-0.684-10.89-0.662-16.071,0.17
				c-0.245,0.039-0.391,0.2-0.318,0.348c0.073,0.149,0.336,0.229,0.581,0.19c5.086-0.803,10.615-0.818,15.807-0.135
				c0,0.893,0,1.337,0,2.223C18.42,26.359,12.813,26.38,7.63,27.204c-0.245,0.039-0.391,0.198-0.318,0.345
				c0.073,0.147,0.336,0.227,0.581,0.188c5.088-0.796,10.614-0.81,15.807-0.134c0,0.884,0,1.325,0,2.204
				c-5.281-0.672-10.885-0.651-16.071,0.167c-0.246,0.039-0.391,0.196-0.318,0.342c0.073,0.146,0.336,0.225,0.581,0.187
				c5.09-0.79,10.612-0.804,15.807-0.133c0,0.878,0,1.315,0,2.189C18.418,31.89,12.816,31.91,7.63,32.723
				c-0.246,0.038-0.391,0.195-0.318,0.34c0.073,0.145,0.336,0.224,0.581,0.186c5.092-0.786,10.612-0.8,15.807-0.132
				c0,0.873,0,1.308,0,2.179c-5.283-0.665-10.883-0.645-16.071,0.165c-0.246,0.038-0.391,0.194-0.318,0.339
				c0.073,0.145,0.336,0.223,0.581,0.185c5.094-0.783,10.611-0.797,15.807-0.132c0,0.87,0,1.305,0,2.174
				c-5.283-0.664-10.883-0.644-16.071,0.165c-0.246,0.038-0.391,0.194-0.318,0.339c0.073,0.145,0.336,0.223,0.581,0.185
				c5.094-0.782,10.611-0.797,15.807-0.132c0,0.869,0,1.304,0,2.174c-5.283-0.665-10.884-0.645-16.071,0.165
				c-0.246,0.038-0.391,0.194-0.318,0.339c0.073,0.145,0.336,0.223,0.581,0.186c5.093-0.783,10.612-0.798,15.807-0.132
				c0,0.871,0,1.306,0,2.179c-5.282-0.667-10.884-0.647-16.071,0.166c-0.246,0.038-0.391,0.195-0.318,0.34
				c0.073,0.145,0.336,0.224,0.581,0.186c5.092-0.786,10.612-0.801,15.807-0.133c0,0.874,0,1.312,0,2.19
				c-5.281-0.671-10.886-0.651-16.071,0.166c-0.246,0.039-0.391,0.196-0.318,0.342c0.073,0.146,0.336,0.225,0.581,0.187
				c5.091-0.791,10.613-0.805,15.807-0.133c0,0.879,0,1.451,0,2.66c-5.229-0.917-10.981-0.876-16.071,0.229
				c-0.245,0.053-0.391,0.27-0.318,0.471c0.073,0.201,0.337,0.31,0.581,0.258c4.995-1.067,10.665-1.101,15.807-0.183
				c0,1.209,0,1.814,0,3.023c-5.229-0.917-10.981-0.876-16.071,0.229c-0.245,0.053-0.391,0.27-0.318,0.471
				c0.073,0.201,0.337,0.31,0.581,0.258c4.995-1.067,10.665-1.101,15.807-0.183c0,1.209,0,1.814,0,3.023
				c-5.229-0.917-10.981-0.876-16.071,0.229c-0.245,0.053-0.391,0.27-0.318,0.471c0.073,0.201,0.337,0.31,0.581,0.257
				c4.995-1.067,10.665-1.1,15.807-0.183c0,1.209,0,1.814,0,3.023c-5.229-0.917-10.981-0.876-16.071,0.229
				c-0.245,0.053-0.391,0.27-0.318,0.471c0.073,0.201,0.337,0.31,0.581,0.258c4.995-1.067,10.665-1.101,15.807-0.183
				c0,1.209,0,1.814,0,3.023c-5.229-0.917-10.981-0.876-16.071,0.229c-0.245,0.053-0.391,0.27-0.318,0.471
				c0.073,0.201,0.337,0.31,0.581,0.257c4.995-1.067,10.665-1.1,15.807-0.183c0,1.209,0,1.814,0,3.023
				c-5.229-0.917-10.981-0.876-16.071,0.229c-0.245,0.053-0.391,0.27-0.318,0.471c0.073,0.201,0.337,0.31,0.581,0.258
				c4.995-1.067,10.665-1.101,15.807-0.183c0,1.209,0,1.814,0,3.023c-5.229-0.917-10.981-0.876-16.071,0.229
				c-0.245,0.053-0.391,0.27-0.318,0.471c0.073,0.201,0.337,0.31,0.581,0.257c4.995-1.067,10.665-1.101,15.807-0.183
				c0,1.209,0,1.814,0,3.023c-5.229-0.917-10.981-0.876-16.071,0.229c-0.245,0.053-0.391,0.27-0.318,0.471
				c0.073,0.201,0.337,0.31,0.581,0.258c4.997-1.066,10.665-1.101,15.807-0.183c0,1.209,0,1.814,0,3.023
				c-5.229-0.917-10.981-0.876-16.071,0.229c-0.245,0.053-0.391,0.27-0.318,0.471c0.073,0.201,0.337,0.31,0.581,0.257
				c4.997-1.066,10.665-1.1,15.807-0.183c0,1.209,0,1.814,0,3.023c-5.229-0.917-10.981-0.876-16.071,0.229
				c-0.245,0.053-0.391,0.27-0.318,0.471c0.073,0.201,0.337,0.31,0.581,0.258c4.997-1.066,10.665-1.101,15.807-0.183
				c0,1.209,0,1.814,0,3.023c-5.229-0.917-10.981-0.876-16.071,0.229c-0.245,0.053-0.391,0.27-0.318,0.471
				c0.073,0.201,0.337,0.31,0.581,0.257c4.997-1.066,10.665-1.101,15.807-0.183c0,1.209,0,1.814,0,3.023
				c-5.229-0.917-10.981-0.876-16.071,0.229c-0.245,0.053-0.391,0.27-0.318,0.471c0.073,0.201,0.337,0.31,0.581,0.258
				c4.997-1.066,10.665-1.101,15.807-0.183c0,1.209,0,1.814,0,3.023c-5.229-0.917-10.981-0.875-16.071,0.229
				c-0.245,0.053-0.391,0.27-0.318,0.471c0.073,0.201,0.337,0.31,0.581,0.258c4.997-1.066,10.665-1.101,15.807-0.183
				c0,1.209,0,1.814,0,3.023c-5.229-0.917-10.981-0.876-16.071,0.229c-0.245,0.053-0.391,0.27-0.318,0.471
				c0.073,0.201,0.337,0.31,0.581,0.258c4.997-1.066,10.665-1.101,15.807-0.183c0,1.209,0,1.814,0,3.023
				c-5.229-0.917-10.981-0.876-16.071,0.229c-0.245,0.053-0.391,0.27-0.318,0.471c0.073,0.201,0.337,0.31,0.581,0.258
				c4.997-1.066,10.665-1.101,15.807-0.183c0,1.209,0,1.814,0,3.023c-5.229-0.917-10.981-0.876-16.071,0.229
				c-0.245,0.053-0.391,0.27-0.318,0.471c0.073,0.201,0.337,0.31,0.581,0.257c4.997-1.066,10.665-1.1,15.807-0.183
				c0,1.209,0,1.814,0,3.023c-5.229-0.917-10.981-0.876-16.071,0.229c-0.245,0.053-0.391,0.27-0.318,0.471
				c0.073,0.201,0.337,0.31,0.581,0.258c4.997-1.066,10.665-1.101,15.807-0.183c0,1.209,0,1.814,0,3.023
				c-5.229-0.917-10.981-0.876-16.071,0.229c-0.245,0.053-0.391,0.27-0.318,0.471c0.073,0.201,0.337,0.31,0.581,0.257
				c4.997-1.066,10.665-1.101,15.807-0.183c0,1.209,0,1.814,0,3.023c-5.229-0.917-10.981-0.876-16.071,0.229
				c-0.245,0.053-0.391,0.27-0.318,0.471c0.073,0.201,0.337,0.31,0.581,0.258c4.997-1.066,10.665-1.101,15.807-0.183
				c0,1.209,0,1.814,0,3.023c-5.229-0.917-10.981-0.876-16.071,0.229c-0.245,0.053-0.391,0.27-0.318,0.471
				c0.073,0.201,0.337,0.31,0.581,0.258c4.999-1.065,10.665-1.101,15.807-0.184c0,1.209,0,1.814,0,3.023
				c-5.229-0.917-10.986-0.879-16.071,0.229c-0.245,0.053-0.391,0.27-0.318,0.471c0.073,0.201,0.337,0.31,0.581,0.258
				c4.999-1.064,10.665-1.1,15.807-0.184c0,1.209,0,1.705,0,2.604c-5.279-0.689-10.893-0.667-16.071,0.17
				c-0.245,0.04-0.391,0.2-0.318,0.349c0.073,0.149,0.336,0.228,0.581,0.19c5.092-0.798,10.614-0.818,15.807-0.135
				c0,0.891,0,1.329,0,2.192c-5.284-0.661-10.884-0.641-16.071,0.163c-0.245,0.038-0.391,0.192-0.318,0.335
				c0.073,0.143,0.336,0.219,0.581,0.182c5.102-0.768,10.609-0.786,15.807-0.13c0,0.856,0,1.278,0,2.113
				c-5.288-0.64-10.876-0.622-16.071,0.158c-0.246,0.037-0.391,0.186-0.318,0.324c0.073,0.138,0.336,0.213,0.581,0.177
				c5.109-0.746,10.605-0.762,15.807-0.126c0,0.83,0,1.24,0,2.055c-5.291-0.625-10.871-0.608-16.071,0.154
				c-0.246,0.036-0.391,0.182-0.318,0.317c0.073,0.135,0.336,0.208,0.581,0.173c5.113-0.73,10.603-0.745,15.807-0.123
				c0,0.812,0,1.215,0,2.018c-5.293-0.616-10.868-0.6-16.071,0.152c-0.246,0.036-0.391,0.179-0.318,0.313
				c0.073,0.134,0.335,0.206,0.581,0.171c5.118-0.72,10.602-0.736,15.807-0.122c0,0.803,0,1.202,0,2.003
				c-5.293-0.613-10.868-0.599-16.071,0.152c-0.246,0.035-0.391,0.179-0.318,0.312c0.073,0.133,0.335,0.206,0.581,0.171
				c5.118-0.719,10.602-0.735,15.807-0.122c0,0.802,0,1.203,0,2.01c-5.292-0.617-10.87-0.603-16.071,0.153
				c-0.246,0.036-0.391,0.18-0.318,0.315c0.073,0.135,0.335,0.207,0.581,0.173c5.116-0.726,10.603-0.742,15.807-0.123
				c0,0.809,0,1.216,0,2.037c-5.29-0.628-10.874-0.613-16.071,0.156c-0.246,0.036-0.391,0.184-0.318,0.321
				c0.073,0.137,0.335,0.212,0.581,0.176c5.111-0.74,10.605-0.756,15.807-0.125c0,0.826,0,1.242,0,2.086
				c-5.286-0.644-10.881-0.63-16.071,0.16c-0.245,0.037-0.391,0.189-0.318,0.331c0.073,0.141,0.336,0.218,0.581,0.181
				c5.104-0.762,10.609-0.778,15.807-0.129c0,0.85,0,1.281,0,2.157c-5.281-0.668-10.89-0.652-16.071,0.166
				c-0.245,0.039-0.391,0.196-0.318,0.343c0.073,0.147,0.336,0.227,0.581,0.189c5.095-0.79,10.614-0.808,15.807-0.134
				c0,0.884,0,1.332,0,2.249c-5.273-0.697-10.984-0.739-16.071,0.176c-0.243,0.044-0.391,0.236-0.318,0.409
				c0.073,0.172,0.336,0.262,0.581,0.218c5.065-0.911,10.629-0.943,15.807-0.167c0,1.002,0,1.456,0,2.289
				c-5.293-0.628-10.875-0.583-16.071,0.229c-0.246,0.038-0.391,0.188-0.318,0.324c0.073,0.135,0.335,0.205,0.581,0.169
				c5.12-0.747,10.596-0.795,15.807-0.201c0,0.793,0,1.149,0,1.799c-5.318-0.472-10.828-0.416-16.071,0.238
				c-0.246,0.031-0.391,0.147-0.318,0.252c0.073,0.104,0.335,0.157,0.581,0.129c5.164-0.601,10.573-0.657,15.807-0.212
				c0,0.617,0,0.892,0,1.393c-5.335-0.349-10.793-0.289-16.071,0.229c-0.247,0.024-0.391,0.114-0.318,0.193
				c0.073,0.079,0.334,0.119,0.581,0.096c5.196-0.475,10.558-0.534,15.807-0.205c0,0.475,0,0.685,0,1.071
				c-5.344-0.257-10.769-0.199-16.071,0.207c-0.247,0.019-0.391,0.087-0.318,0.147c0.073,0.06,0.334,0.09,0.581,0.072
				c5.218-0.372,10.549-0.429,15.807-0.186c0,0.366,0,0.528,0,0.831c-5.349-0.196-10.753-0.144-16.071,0.177
				c-0.247,0.015-0.391,0.068-0.318,0.115c0.073,0.047,0.334,0.07,0.581,0.056c5.232-0.296,10.545-0.346,15.807-0.158
				c0,0.29,0,0.421,0,0.675c-5.352-0.164-10.745-0.121-16.071,0.145c-0.247,0.012-0.391,0.056-0.318,0.096
				c0.073,0.039,0.333,0.059,0.581,0.047c5.239-0.249,10.543-0.288,15.807-0.127c0,0.247,0,0.364,0,0.601
				c-5.352-0.159-10.743-0.128-16.071,0.113c-0.247,0.011-0.391,0.052-0.318,0.09c0.073,0.038,0.333,0.057,0.581,0.047
				c5.24-0.231,10.543-0.259,15.807-0.098c0,0.238,0,0.357,0,0.611c-5.35-0.18-10.747-0.162-16.071,0.088
				c-0.247,0.012-0.391,0.056-0.318,0.098c0.073,0.042,0.333,0.065,0.581,0.053c5.235-0.246,10.545-0.262,15.807-0.074
				c0,0.262,0,0.4,0,0.705c-5.347-0.225-10.757-0.22-16.071,0.074c-0.247,0.014-0.391,0.068-0.318,0.12
				c0.073,0.052,0.334,0.08,0.581,0.067c5.224-0.293,10.549-0.298,15.807-0.061c0,0.261,0,0.401,0,0.707c0.469,0,0.703,0,1.171,0
				c0-0.281,0-0.411,0-0.654c0.996,0.048,1.978,0.074,2.945,0.073c2.032-0.001,3.993-0.118,5.866-0.327c0,0.329,0,0.506,0,0.905
				c0.562,0,0.843,0,1.405,0c0-54.358,0-108.715,0-163.073c-0.562,0-0.843,0-1.405,0C33.683,5.783,33.683,5.84,33.683,5.949z
				 M24.872,6.766C25.868,6.8,26.85,6.795,27.817,6.76c2.031-0.073,3.993-0.268,5.866-0.547c0,0.343,0,0.489,0,0.751
				c-2.714,0.425-5.636,0.715-8.694,0.744c-0.039,0-0.078,0.001-0.117,0.001C24.872,7.387,24.872,7.204,24.872,6.766z M24.872,7.908
				c0.996-0.019,1.978-0.065,2.945-0.129c2.031-0.135,3.993-0.353,5.866-0.629c0,0.242,0,0.345,0,0.534
				c-2.714,0.412-5.636,0.719-8.694,0.858c-0.039,0.002-0.078,0.004-0.117,0.005C24.872,8.328,24.872,8.206,24.872,7.908z
				 M24.872,8.683c0.996-0.051,1.978-0.118,2.945-0.198c2.031-0.168,3.993-0.394,5.866-0.665c0,0.179,0,0.258,0,0.414
				c-2.714,0.404-5.636,0.707-8.694,0.894c-0.039,0.002-0.078,0.005-0.117,0.007C24.872,8.973,24.872,8.887,24.872,8.683z
				 M24.872,9.239c0.996-0.063,1.978-0.136,2.945-0.22c2.031-0.177,3.993-0.401,5.866-0.67c0,0.154,0,0.228,0,0.39
				c-2.714,0.408-5.636,0.696-8.694,0.877c-0.039,0.002-0.078,0.005-0.117,0.007C24.872,9.469,24.872,9.397,24.872,9.239z
				 M24.872,9.724c0.996-0.058,1.978-0.125,2.945-0.204c2.031-0.166,3.993-0.386,5.866-0.66c0,0.168,0,0.257,0,0.462
				c-2.714,0.432-5.636,0.699-8.694,0.83c-0.039,0.002-0.078,0.003-0.117,0.005C24.872,9.964,24.872,9.883,24.872,9.724z
				 M24.872,10.286c0.996-0.039,1.978-0.09,2.945-0.157c2.031-0.141,3.993-0.359,5.866-0.649c0,0.221,0,0.343,0,0.63
				c-2.714,0.483-5.636,0.731-8.694,0.773c-0.039,0.001-0.078,0.001-0.117,0.002C24.872,10.607,24.872,10.492,24.872,10.286z
				 M24.872,11.072c0.996-0.008,1.978-0.035,2.945-0.086c2.031-0.108,3.993-0.33,5.866-0.654c0,0.311,0,0.486,0,0.894
				c-2.714,0.567-5.636,0.808-8.694,0.732c-0.039-0.001-0.078-0.002-0.117-0.002C24.872,11.545,24.872,11.373,24.872,11.072z
				 M24.872,12.23c0.996,0.031,1.978,0.033,2.945-0.001c2.031-0.072,3.993-0.309,5.866-0.69c0,0.441,0,0.688,0,1.255
				c-2.714,0.692-5.636,0.944-8.694,0.729c-0.039-0.003-0.078-0.005-0.117-0.008C24.872,12.926,24.872,12.674,24.872,12.23z
				 M24.872,13.909c0.996,0.076,1.978,0.11,2.945,0.092c2.031-0.038,3.993-0.309,5.866-0.772c0,0.609,0,0.947,0,1.712
				c-2.714,0.866-5.636,1.155-8.694,0.786c-0.039-0.005-0.078-0.009-0.117-0.013C24.872,14.898,24.872,14.542,24.872,13.909z
				 M24.872,16.256c0.996,0.126,1.978,0.191,2.945,0.185c2.031-0.011,3.993-0.338,5.866-0.916c0,0.815,0,1.264,0,2.265
				c-2.714,1.095-5.636,1.369-8.694,0.926c-0.039-0.006-0.078-0.011-0.117-0.017C24.872,17.608,24.872,17.125,24.872,16.256z
				 M24.872,19.289c0.996,0.139,1.978,0.21,2.945,0.21c2.031,0,3.993-0.217,5.866-0.948c0,1.06,0,1.36,0,2.241
				c-2.714,0.96-5.636,1.224-8.694,0.788c-0.039-0.005-0.078-0.01-0.117-0.016C24.872,20.659,24.872,20.204,24.872,19.289z
				 M24.872,22.145c0.996,0.137,1.978,0.207,2.945,0.207c2.031,0,3.993-0.304,5.866-0.909c0,0.879,0,1.316,0,2.186
				c-2.714,0.948-5.636,1.209-8.694,0.778c-0.039-0.006-0.078-0.01-0.117-0.016C24.872,23.496,24.872,23.047,24.872,22.145z
				 M24.872,24.964c0.996,0.135,1.978,0.205,2.945,0.205c2.031,0,3.993-0.301,5.866-0.899c0,0.868,0,1.3,0,2.16
				c-2.714,0.938-5.636,1.196-8.694,0.77c-0.039-0.005-0.078-0.01-0.117-0.015C24.872,26.3,24.872,25.856,24.872,24.964z
				 M24.872,27.753c0.996,0.134,1.978,0.203,2.945,0.203c2.031,0,3.993-0.298,5.866-0.89c0,0.859,0,1.287,0,2.14
				c-2.714,0.93-5.636,1.186-8.694,0.763c-0.039-0.005-0.078-0.01-0.117-0.015C24.872,29.076,24.872,28.636,24.872,27.753z
				 M24.872,30.518c0.996,0.133,1.978,0.201,2.945,0.201c2.031,0,3.993-0.296,5.866-0.883c0,0.852,0,1.277,0,2.125
				c-2.714,0.924-5.636,1.18-8.694,0.759c-0.039-0.005-0.078-0.01-0.117-0.015C24.872,31.831,24.872,31.394,24.872,30.518z
				 M24.872,33.265c0.996,0.132,1.978,0.2,2.945,0.2c2.031,0,3.993-0.295,5.866-0.878c0,0.847,0,1.27,0,2.114
				c-2.714,0.92-5.636,1.175-8.694,0.756c-0.039-0.005-0.078-0.01-0.117-0.015C24.872,34.572,24.872,34.137,24.872,33.265z
				 M24.872,36.001c0.996,0.132,1.978,0.199,2.945,0.199c2.031,0,3.993-0.294,5.866-0.875c0,0.844,0,1.265,0,2.108
				c-2.714,0.918-5.636,1.174-8.694,0.755c-0.039-0.005-0.078-0.01-0.117-0.015C24.872,37.304,24.872,36.87,24.872,36.001z
				 M24.872,38.731c0.996,0.132,1.978,0.199,2.945,0.199c2.031,0,3.993-0.294,5.866-0.874c0,0.843,0,1.264,0,2.107
				c-2.714,0.919-5.636,1.174-8.694,0.755c-0.039-0.005-0.078-0.01-0.117-0.015C24.872,40.034,24.872,39.6,24.872,38.731z
				 M24.872,41.463c0.996,0.132,1.978,0.2,2.945,0.2c2.031,0,3.993-0.294,5.866-0.875c0,0.844,0,1.266,0,2.111
				c-2.714,0.922-5.636,1.178-8.694,0.758c-0.039-0.005-0.078-0.01-0.117-0.015C24.872,42.769,24.872,42.333,24.872,41.463z
				 M24.872,44.203c0.996,0.133,1.978,0.2,2.945,0.2c2.031,0,3.993-0.296,5.866-0.879c0,0.847,0,1.271,0,2.121
				c-2.714,0.926-5.636,1.185-8.694,0.762c-0.039-0.005-0.078-0.01-0.117-0.015C24.872,45.514,24.872,45.076,24.872,44.203z
				 M24.872,46.956c0.996,0.134,1.978,0.202,2.945,0.202c2.031,0,3.993-0.298,5.866-0.884c0,0.851,0,1.195,0,2.367
				c-2.714,1.277-5.636,1.632-8.694,1.05c-0.039-0.007-0.078-0.014-0.117-0.021C24.872,48.461,24.872,47.835,24.872,46.956z
				 M24.872,50.447c0.996,0.184,1.978,0.277,2.945,0.277c2.031,0,3.993-0.409,5.866-1.216c0,1.172,0,1.759,0,2.931
				c-2.714,1.278-5.636,1.632-8.694,1.05c-0.039-0.008-0.078-0.014-0.117-0.021C24.872,52.259,24.872,51.655,24.872,50.447z
				 M24.872,54.244c0.996,0.184,1.978,0.277,2.945,0.277c2.031,0,3.993-0.409,5.866-1.216c0,1.172,0,1.759,0,2.931
				c-2.714,1.277-5.636,1.632-8.694,1.05c-0.039-0.007-0.078-0.014-0.117-0.021C24.872,56.057,24.872,55.453,24.872,54.244z
				 M24.872,58.042c0.996,0.184,1.978,0.277,2.945,0.277c2.031,0,3.993-0.409,5.866-1.216c0,1.172,0,1.759,0,2.931
				c-2.714,1.277-5.636,1.632-8.694,1.05c-0.039-0.007-0.078-0.014-0.117-0.021C24.872,59.854,24.872,59.25,24.872,58.042z
				 M24.872,61.839c0.996,0.184,1.978,0.277,2.945,0.277c2.031,0,3.993-0.409,5.866-1.216c0,1.172,0,1.759,0,2.931
				c-2.714,1.277-5.636,1.632-8.694,1.05c-0.039-0.007-0.078-0.014-0.117-0.021C24.872,63.652,24.872,63.048,24.872,61.839z
				 M24.872,65.637c0.996,0.184,1.978,0.277,2.945,0.277c2.031,0,3.993-0.409,5.866-1.216c0,1.172,0,1.758,0,2.931
				c-2.714,1.277-5.636,1.632-8.694,1.05c-0.039-0.007-0.078-0.014-0.117-0.021C24.872,67.45,24.872,66.845,24.872,65.637z
				 M24.872,69.435c0.996,0.184,1.978,0.277,2.945,0.277c2.031,0,3.993-0.409,5.866-1.216c0,1.172,0,1.759,0,2.931
				c-2.714,1.278-5.636,1.632-8.694,1.05c-0.039-0.007-0.078-0.014-0.117-0.021C24.872,71.247,24.872,70.643,24.872,69.435z
				 M24.872,73.232c0.996,0.184,1.978,0.277,2.945,0.277c2.031,0,3.993-0.409,5.866-1.216c0,1.172,0,1.759,0,2.931
				c-2.714,1.277-5.636,1.632-8.694,1.05c-0.039-0.007-0.078-0.014-0.117-0.021C24.872,75.045,24.872,74.441,24.872,73.232z
				 M24.872,77.03c0.996,0.184,1.978,0.277,2.945,0.277c2.031,0,3.993-0.409,5.866-1.216c0,1.172,0,1.759,0,2.931
				c-2.714,1.277-5.636,1.632-8.694,1.05c-0.039-0.007-0.078-0.014-0.117-0.021C24.872,78.843,24.872,78.238,24.872,77.03z
				 M24.872,80.828c0.996,0.184,1.978,0.277,2.945,0.277c2.031,0,3.993-0.409,5.866-1.216c0,1.172,0,1.759,0,2.931
				c-2.714,1.277-5.636,1.632-8.694,1.05c-0.039-0.007-0.078-0.014-0.117-0.021C24.872,82.64,24.872,82.036,24.872,80.828z
				 M24.872,84.625c0.996,0.184,1.978,0.277,2.945,0.277c2.031,0,3.993-0.409,5.866-1.216c0,1.172,0,1.759,0,2.931
				c-2.714,1.277-5.636,1.633-8.694,1.05c-0.039-0.007-0.078-0.014-0.117-0.021C24.872,86.438,24.872,85.834,24.872,84.625z
				 M24.872,88.423c0.996,0.184,1.978,0.277,2.945,0.277c2.031,0,3.993-0.409,5.866-1.216c0,1.172,0,1.759,0,2.931
				c-2.714,1.277-5.636,1.632-8.694,1.05c-0.039-0.007-0.078-0.014-0.117-0.021C24.872,90.236,24.872,89.631,24.872,88.423z
				 M24.872,92.221c0.996,0.184,1.978,0.277,2.945,0.277c2.031,0,3.993-0.409,5.866-1.216c0,1.172,0,1.759,0,2.931
				c-2.714,1.277-5.636,1.632-8.694,1.05c-0.039-0.007-0.078-0.014-0.117-0.021C24.872,94.033,24.872,93.429,24.872,92.221z
				 M24.872,96.018c0.996,0.184,1.978,0.277,2.945,0.277c2.031,0,3.993-0.409,5.866-1.216c0,1.172,0,1.759,0,2.931
				c-2.714,1.277-5.636,1.633-8.694,1.05c-0.039-0.007-0.078-0.014-0.117-0.021C24.872,97.831,24.872,97.227,24.872,96.018z
				 M24.872,99.816c0.996,0.184,1.978,0.277,2.945,0.277c2.031,0,3.993-0.409,5.866-1.216c0,1.172,0,1.759,0,2.931
				c-2.714,1.277-5.636,1.632-8.694,1.05c-0.039-0.007-0.078-0.014-0.117-0.021C24.872,101.628,24.872,101.024,24.872,99.816z
				 M24.872,103.614c0.996,0.184,1.978,0.277,2.945,0.277c2.031,0,3.993-0.409,5.866-1.216c0,1.172,0,1.759,0,2.931
				c-2.714,1.277-5.636,1.632-8.694,1.05c-0.039-0.007-0.078-0.014-0.117-0.021C24.872,105.426,24.872,104.822,24.872,103.614z
				 M24.872,107.411c0.996,0.184,1.978,0.277,2.945,0.277c2.031,0,3.993-0.409,5.866-1.216c0,1.172,0,1.759,0,2.931
				c-2.714,1.278-5.636,1.632-8.694,1.05c-0.039-0.007-0.078-0.014-0.117-0.021C24.872,109.224,24.872,108.62,24.872,107.411z
				 M24.872,111.209c0.996,0.184,1.978,0.277,2.945,0.277c2.031,0,3.993-0.409,5.866-1.216c0,1.172,0,1.759,0,2.931
				c-2.714,1.277-5.636,1.632-8.694,1.05c-0.039-0.007-0.078-0.014-0.117-0.021C24.872,113.021,24.872,112.417,24.872,111.209z
				 M24.872,115.007c0.996,0.184,1.978,0.277,2.945,0.277c2.031,0,3.993-0.409,5.866-1.216c0,1.172,0,1.758,0,2.931
				c-2.714,1.277-5.636,1.633-8.694,1.05c-0.039-0.007-0.078-0.014-0.117-0.021C24.872,116.819,24.872,116.215,24.872,115.007z
				 M24.872,118.804c0.996,0.184,1.978,0.277,2.945,0.277c2.031,0,3.993-0.409,5.866-1.216c0,1.172,0,1.759,0,2.931
				c-2.714,1.278-5.636,1.632-8.694,1.05c-0.039-0.007-0.078-0.014-0.117-0.021C24.872,120.617,24.872,120.013,24.872,118.804z
				 M24.872,122.602c0.996,0.184,1.978,0.277,2.945,0.277c2.032,0,3.993-0.409,5.866-1.216c0,1.173,0,1.759,0,2.931
				c-2.714,1.277-5.635,1.631-8.694,1.049c-0.039-0.007-0.078-0.014-0.117-0.021C24.872,124.414,24.872,123.81,24.872,122.602z
				 M24.872,126.399c0.996,0.184,1.978,0.277,2.945,0.277c2.032,0,3.993-0.409,5.866-1.216c0,1.172,0,1.84,0,2.721
				c-2.714,0.96-5.635,1.215-8.694,0.784c-0.039-0.006-0.078-0.01-0.117-0.016C24.872,128.053,24.872,127.608,24.872,126.399z
				 M24.872,129.524c0.996,0.135,1.978,0.204,2.945,0.204c2.032,0,3.993-0.298,5.866-0.898c0,0.872,0,1.3,0,2.143
				c-2.714,0.919-5.635,1.166-8.694,0.751c-0.039-0.005-0.078-0.01-0.117-0.015C24.872,130.848,24.872,130.412,24.872,129.524z
				 M24.872,132.26c0.996,0.13,1.978,0.196,2.945,0.196c2.032,0,3.993-0.287,5.866-0.862c0,0.836,0,1.248,0,2.062
				c-2.714,0.888-5.635,1.127-8.694,0.726c-0.039-0.005-0.078-0.009-0.117-0.014C24.872,133.535,24.872,133.114,24.872,132.26z
				 M24.872,134.901c0.996,0.126,1.978,0.19,2.945,0.19c2.032,0,3.993-0.278,5.866-0.835c0,0.809,0,1.209,0,2.002
				c-2.714,0.865-5.635,1.1-8.694,0.708c-0.039-0.005-0.078-0.009-0.117-0.014C24.872,136.139,24.872,135.729,24.872,134.901z
				 M24.872,137.474c0.996,0.123,1.978,0.186,2.945,0.186c2.032,0,3.993-0.273,5.866-0.817c0,0.79,0,1.182,0,1.962
				c-2.714,0.851-5.635,1.085-8.694,0.698c-0.039-0.005-0.078-0.009-0.117-0.014C24.872,138.687,24.872,138.285,24.872,137.474z
				 M24.872,140.006c0.996,0.122,1.978,0.184,2.945,0.184c2.032,0,3.993-0.271,5.866-0.807c0,0.779,0,1.167,0,1.944
				c-2.714,0.846-5.635,1.081-8.694,0.695c-0.039-0.005-0.078-0.009-0.117-0.014C24.872,141.207,24.872,140.807,24.872,140.006z
				 M24.872,142.522c0.996,0.122,1.978,0.184,2.945,0.184c2.032,0,3.993-0.271,5.866-0.806c0,0.777,0,1.165,0,1.946
				c-2.714,0.85-5.635,1.089-8.694,0.7c-0.039-0.005-0.078-0.009-0.117-0.014C24.872,143.724,24.872,143.323,24.872,142.522z
				 M24.872,145.051c0.996,0.123,1.978,0.186,2.945,0.186c2.032,0,3.993-0.275,5.866-0.814c0,0.783,0,1.175,0,1.968
				c-2.714,0.864-5.635,1.107-8.694,0.712c-0.039-0.005-0.078-0.009-0.117-0.014C24.872,146.267,24.872,145.86,24.872,145.051z
				 M24.872,147.619c0.996,0.126,1.978,0.19,2.945,0.19c2.032,0,3.993-0.281,5.866-0.83c0,0.797,0,1.198,0,2.012
				c-2.714,0.886-5.635,1.138-8.694,0.731c-0.039-0.005-0.078-0.01-0.117-0.015C24.872,148.861,24.872,148.445,24.872,147.619z
				 M24.872,150.252c0.996,0.129,1.978,0.196,2.945,0.196c2.032,0,3.993-0.29,5.866-0.854c0,0.819,0,1.233,0,2.076
				c-2.714,0.917-5.635,1.181-8.694,0.758c-0.039-0.005-0.078-0.01-0.117-0.015C24.872,151.534,24.872,151.103,24.872,150.252z
				 M24.872,152.978c0.996,0.134,1.978,0.203,2.945,0.203c2.032,0,3.993-0.302,5.866-0.887c0,0.85,0,1.281,0,2.16
				c-2.714,0.958-5.635,1.29-8.694,0.793c-0.039-0.006-0.078-0.011-0.117-0.017C24.872,154.313,24.872,153.863,24.872,152.978z
				 M24.872,155.879c0.996,0.149,1.978,0.222,2.945,0.221c2.032-0.003,3.993-0.38,5.866-0.992c0,0.889,0,1.437,0,2.274
				c-2.714,0.922-5.635,1.146-8.694,0.765c-0.039-0.005-0.078-0.009-0.117-0.014C24.872,157.314,24.872,156.866,24.872,155.879z
				 M24.872,158.648c0.996,0.113,1.978,0.167,2.945,0.162c2.032-0.011,3.993-0.27,5.866-0.825c0,0.794,0,1.154,0,1.812
				c-2.714,0.736-5.635,0.918-8.694,0.632c-0.039-0.004-0.078-0.007-0.117-0.01C24.872,159.78,24.872,159.429,24.872,158.648z
				 M24.872,160.821c0.996,0.085,1.978,0.123,2.945,0.116c2.032-0.016,3.993-0.223,5.866-0.665c0,0.623,0,0.902,0,1.414
				c-2.714,0.58-5.635,0.727-8.694,0.515c-0.039-0.003-0.078-0.005-0.117-0.008C24.872,161.7,24.872,161.429,24.872,160.821z
				 M24.872,162.502c0.996,0.063,1.978,0.089,2.945,0.081c2.032-0.017,3.993-0.182,5.866-0.53c0,0.483,0,0.698,0,1.094
				c-2.714,0.454-5.635,0.572-8.694,0.415c-0.039-0.002-0.078-0.004-0.117-0.006C24.872,163.177,24.872,162.969,24.872,162.502z
				 M24.872,163.795c0.996,0.047,1.978,0.066,2.945,0.058c2.032-0.017,3.993-0.148,5.866-0.421c0,0.374,0,0.541,0,0.852
				c-2.714,0.36-5.635,0.457-8.694,0.336c-0.039-0.002-0.078-0.003-0.117-0.004C24.872,164.316,24.872,164.156,24.872,163.795z
				 M24.872,164.804c0.996,0.036,1.978,0.051,2.945,0.044c2.032-0.015,3.993-0.121,5.866-0.34c0,0.296,0,0.431,0,0.689
				c-2.714,0.299-5.635,0.382-8.694,0.279c-0.039-0.001-0.078-0.002-0.117-0.004C24.872,165.221,24.872,165.091,24.872,164.804z
				 M24.872,165.634c0.996,0.032,1.978,0.046,2.945,0.04c2.032-0.011,3.993-0.104,5.866-0.288c0,0.25,0,0.368,0,0.604
				c-2.714,0.27-5.635,0.35-8.694,0.248c-0.039-0.001-0.078-0.002-0.117-0.004C24.872,165.997,24.872,165.88,24.872,165.634z
				 M24.872,166.388c0.996,0.033,1.978,0.048,2.945,0.044c2.032-0.008,3.993-0.097,5.866-0.267c0,0.236,0,0.352,0,0.598
				c-2.714,0.276-5.635,0.361-8.694,0.245c-0.039-0.001-0.078-0.003-0.117-0.004C24.872,166.747,24.872,166.627,24.872,166.388z
				 M24.988,167.889c-0.039-0.002-0.078-0.003-0.117-0.005c0-0.309,0-0.448,0-0.713c0.996,0.038,1.978,0.057,2.945,0.055
				c2.032-0.004,3.993-0.101,5.866-0.28c0,0.252,0,0.383,0,0.67C30.969,167.932,28.047,168.035,24.988,167.889z"/>
			<path fill="#4D4D4D" d="M65.617,10.223c0.112,0.036,0.301,0.067,0.494,0.083c0.108,0.009,0.217,0.014,0.314,0.013
				c0.273-0.003,0.346-0.066,0.179-0.114c-4.216-1.189-9.252-1.171-13.875-1.438c0-0.228,0-0.358,0-0.669
				c3.515,0.122,11.416,0.494,12.888,1.185c0.112,0.052,0.301,0.09,0.494,0.103c0.108,0.008,0.217,0.008,0.314-0.001
				c0.273-0.024,0.344-0.136,0.179-0.201c-3.931-1.544-9.274-1.245-13.875-1.362c0-0.649,0-1.051,0-2.158c-0.468,0-0.703,0-1.171,0
				c0,1.04,0,1.423,0,2.044c-2.25-0.528-3.375-0.802-5.625-1.332c0-0.261,0-0.402,0-0.712c-0.468,0-0.703,0-1.171,0
				c0,0.232,0,0.341,0,0.544c-2.15-0.19-3.225-0.275-5.376-0.421c0-0.048,0-0.073,0-0.123c-0.937,0-1.405,0-2.343,0
				c0,54.358,0,108.715,0,163.073c0.937,0,1.405,0,2.342,0.001c0-0.495,0-0.707,0-1.098c2.15,0.106,3.226,0.161,5.376,0.272
				c0,0.302,0,0.465,0,0.828c0.469,0,0.703,0,1.171,0c0-0.298,0-0.434,0-0.689c2.254,0.36,3.381,0.555,5.635,0.999
				c0.001,0.007-0.007,0.013-0.004,0.019c0.047,0.086,0.343,0.148,0.665,0.135c4.384-0.177,9.669-0.879,13.388,0.361
				c0.104,0.035,0.301,0.081,0.494,0.081c0.108,0,0.217-0.009,0.314-0.027c0.273-0.052,0.343-0.182,0.179-0.237
				c-4.099-1.389-9.793-0.658-14.547-0.488c-0.027,0.001-0.048,0.005-0.073,0.007c-2.421-0.463-3.631-0.663-6.052-1.035
				c0-0.316,0-0.458,0-0.73c2.25,0.299,3.375,0.454,5.625,0.803c0,0.293,0,0.451,0,0.802c0.469,0,0.703,0,1.171,0
				c0-0.301,0-0.438,0-0.695c3.515-0.096,11.416-0.224,12.888,0.301c0.112,0.04,0.301,0.062,0.494,0.062
				c0.108,0,0.217-0.007,0.314-0.021c0.273-0.04,0.343-0.14,0.179-0.181c-4.095-1.032-9.28-0.516-13.875-0.407
				c0-0.283,0-0.412,0-0.657c3.515-0.073,11.416-0.157,12.888,0.261c0.112,0.032,0.301,0.049,0.494,0.05
				c0.108,0,0.217-0.005,0.314-0.016c0.273-0.031,0.344-0.11,0.179-0.144c-4.215-0.861-9.27-0.438-13.875-0.354
				c0-0.237,0-0.348,0-0.57c3.515-0.06,11.416-0.11,12.888,0.257c0.112,0.028,0.301,0.043,0.494,0.044
				c0.108,0,0.217-0.004,0.314-0.013c0.273-0.026,0.345-0.094,0.179-0.125c-4.273-0.786-9.265-0.419-13.875-0.349
				c0-0.222,0-0.331,0-0.562c3.515-0.056,11.416-0.084,12.888,0.284c0.112,0.028,0.301,0.044,0.494,0.045
				c0.108,0.001,0.217-0.003,0.314-0.013c0.273-0.025,0.345-0.094,0.179-0.125c-4.271-0.814-9.266-0.456-13.875-0.388
				c0-0.238,0-0.361,0-0.632c3.515-0.064,11.416-0.085,12.888,0.338c0.112,0.032,0.301,0.05,0.494,0.052
				c0.108,0.001,0.217-0.004,0.314-0.014c0.273-0.029,0.344-0.108,0.179-0.145c-4.207-0.943-9.271-0.547-13.875-0.466
				c0-0.286,0-0.439,0-0.781c3.515-0.084,11.416-0.115,12.888,0.417c0.112,0.04,0.301,0.063,0.494,0.064
				c0.108,0.001,0.217-0.005,0.314-0.018c0.273-0.036,0.343-0.136,0.179-0.183c-4.08-1.158-9.282-0.689-13.875-0.579
				c0-0.365,0-0.564,0-1.009c3.515-0.117,11.416-0.178,12.888,0.516c0.112,0.053,0.301,0.082,0.494,0.083
				c0.108,0.001,0.217-0.007,0.314-0.024c0.273-0.048,0.343-0.18,0.179-0.24c-3.893-1.438-9.302-0.878-13.875-0.723
				c0-0.476,0-0.736,0-1.315c3.515-0.165,11.416-0.277,12.888,0.63c0.112,0.069,0.301,0.107,0.494,0.108
				c0.108,0.001,0.217-0.01,0.314-0.033c0.273-0.064,0.343-0.238,0.179-0.316c-3.658-1.755-9.329-1.112-13.875-0.894
				c0-0.618,0-0.955,0-1.701c3.515-0.229,11.416-0.415,12.888,0.757c0.112,0.089,0.301,0.137,0.494,0.138
				c0.108,0.001,0.217-0.014,0.314-0.044c0.273-0.085,0.345-0.31,0.179-0.412c-3.399-2.088-9.359-1.388-13.875-1.088
				c0-0.792,0-1.222,0-2.164c3.515-0.309,11.416-0.596,12.888,0.893c0.112,0.113,0.301,0.174,0.494,0.174
				c0.108,0,0.217-0.018,0.314-0.057c0.273-0.11,0.348-0.396,0.179-0.526c-3.111-2.392-9.416-1.6-13.875-1.262
				c0-0.859,0-1.281,0-2.111c3.515-0.275,11.416-0.595,12.888,0.792c0.112,0.105,0.301,0.163,0.494,0.163
				c0.108,0,0.217-0.018,0.314-0.055c0.273-0.104,0.346-0.371,0.179-0.484c-3.231-2.197-9.383-1.438-13.875-1.111
				c0-0.822,0-1.226,0-2.025c3.515-0.264,11.416-0.571,12.888,0.761c0.112,0.101,0.301,0.156,0.494,0.156
				c0.108,0,0.217-0.017,0.314-0.053c0.273-0.1,0.345-0.357,0.179-0.465c-3.274-2.142-9.378-1.385-13.875-1.07
				c0-0.792,0-1.184,0-1.959c3.515-0.256,11.416-0.552,12.888,0.737c0.112,0.098,0.301,0.151,0.494,0.151
				c0.108,0,0.217-0.017,0.314-0.051c0.273-0.097,0.345-0.345,0.179-0.451c-3.308-2.102-9.375-1.346-13.875-1.039
				c0-0.771,0-1.153,0-1.914c3.515-0.251,11.416-0.538,12.888,0.722c0.112,0.096,0.301,0.148,0.494,0.148
				c0.108,0,0.217-0.016,0.314-0.05c0.273-0.095,0.344-0.338,0.179-0.441c-3.332-2.074-9.372-1.321-13.875-1.019
				c0-0.758,0-1.135,0-1.888c3.515-0.249,11.416-0.53,12.888,0.714c0.112,0.094,0.301,0.146,0.494,0.146
				c0.108,0,0.217-0.016,0.314-0.049c0.273-0.094,0.344-0.334,0.179-0.435c-3.345-2.061-9.37-1.31-13.875-1.01
				c0-0.753,0-1.128,0-1.882c3.515-0.249,11.416-0.528,12.888,0.714c0.112,0.094,0.301,0.146,0.494,0.146
				c0.108,0,0.217-0.016,0.314-0.049c0.273-0.093,0.344-0.333,0.179-0.435c-3.347-2.063-9.37-1.312-13.875-1.011
				c0-0.755,0-1.134,0-1.896c3.515-0.252,11.416-0.532,12.888,0.721c0.112,0.095,0.301,0.147,0.494,0.147
				c0.108,0,0.217-0.016,0.314-0.049c0.273-0.094,0.344-0.336,0.179-0.439c-3.337-2.078-9.371-1.329-13.875-1.023
				c0-0.766,0-1.152,0-1.931c3.515-0.258,11.416-0.541,12.888,0.736c0.112,0.097,0.301,0.149,0.494,0.149
				c0.108,0,0.217-0.016,0.314-0.05c0.273-0.096,0.345-0.342,0.179-0.447c-3.317-2.109-9.373-1.359-13.875-1.047
				c0-0.785,0-1.181,0-1.986c3.515-0.266,11.416-0.555,12.888,0.758c0.112,0.1,0.301,0.154,0.494,0.154
				c0.108,0,0.217-0.017,0.314-0.052c0.273-0.099,0.345-0.352,0.179-0.46c-3.286-2.153-9.377-1.404-13.875-1.08
				c0-0.812,0-1.223,0-2.06c3.515-0.277,11.416-0.576,12.888,0.788c0.112,0.103,0.301,0.16,0.494,0.16
				c0.108,0,0.217-0.018,0.314-0.054c0.273-0.102,0.346-0.365,0.179-0.478c-3.245-2.21-9.381-1.462-13.875-1.125
				c0-0.847,0-1.321,0-2.457c3.991-0.425,10.272-1.3,12.888,1.076c0.111,0.101,0.301,0.219,0.494,0.219
				c0.108,0,0.217-0.024,0.314-0.074c0.273-0.141,0.354-0.488,0.179-0.656c-2.869-2.761-9.561-1.957-13.875-1.523
				c0-1.136,0-1.704,0-2.84c3.991-0.425,10.272-1.3,12.888,1.076c0.111,0.101,0.301,0.219,0.494,0.219
				c0.108,0,0.217-0.024,0.314-0.074c0.273-0.141,0.354-0.488,0.179-0.656c-2.869-2.761-9.561-1.957-13.875-1.523
				c0-1.136,0-1.704,0-2.84c3.991-0.425,10.274-1.3,12.888,1.076c0.111,0.101,0.301,0.22,0.494,0.22
				c0.108,0,0.217-0.024,0.314-0.074c0.273-0.141,0.354-0.487,0.179-0.655c-2.871-2.762-9.561-1.957-13.875-1.523
				c0-1.136,0-1.704,0-2.84c3.991-0.425,10.274-1.3,12.888,1.076c0.111,0.101,0.301,0.22,0.494,0.22
				c0.108,0,0.217-0.024,0.314-0.074c0.273-0.141,0.354-0.487,0.179-0.655c-2.871-2.761-9.561-1.957-13.875-1.523
				c0-1.136,0-1.704,0-2.84c3.991-0.425,10.273-1.3,12.888,1.076c0.112,0.101,0.301,0.22,0.494,0.22
				c0.108,0,0.217-0.024,0.314-0.074c0.273-0.141,0.354-0.487,0.179-0.655c-2.871-2.762-9.561-1.957-13.875-1.523
				c0-1.136,0-1.704,0-2.84c3.991-0.425,10.273-1.3,12.888,1.076c0.112,0.101,0.301,0.22,0.494,0.22
				c0.108,0,0.217-0.024,0.314-0.074c0.273-0.141,0.354-0.487,0.179-0.655c-2.871-2.761-9.561-1.957-13.875-1.523
				c0-1.136,0-1.704,0-2.84c3.991-0.425,10.273-1.3,12.888,1.076c0.112,0.101,0.301,0.22,0.494,0.22
				c0.108,0,0.217-0.024,0.314-0.074c0.273-0.141,0.354-0.487,0.179-0.655c-2.871-2.762-9.561-1.957-13.875-1.523
				c0-1.136,0-1.704,0-2.84c3.991-0.425,10.273-1.3,12.888,1.076c0.112,0.101,0.301,0.22,0.494,0.22
				c0.108,0,0.217-0.024,0.314-0.074c0.273-0.141,0.354-0.487,0.179-0.655c-2.871-2.762-9.561-1.957-13.875-1.523
				c0-1.136,0-1.704,0-2.84c3.991-0.425,10.273-1.3,12.888,1.076c0.112,0.101,0.301,0.22,0.494,0.22
				c0.108,0,0.217-0.024,0.314-0.074c0.273-0.141,0.354-0.487,0.179-0.655c-2.871-2.762-9.561-1.957-13.875-1.523
				c0-1.136,0-1.704,0-2.84c3.991-0.425,10.273-1.3,12.888,1.076c0.112,0.101,0.301,0.22,0.494,0.22
				c0.108,0,0.217-0.024,0.314-0.074c0.273-0.141,0.354-0.487,0.179-0.655c-2.871-2.762-9.561-1.957-13.875-1.523
				c0-1.136,0-1.704,0-2.84c3.991-0.425,10.273-1.3,12.888,1.076c0.112,0.101,0.301,0.22,0.494,0.22
				c0.108,0,0.217-0.024,0.314-0.074c0.273-0.141,0.354-0.487,0.179-0.655c-2.871-2.761-9.561-1.957-13.875-1.523
				c0-1.136,0-1.704,0-2.84c3.991-0.425,10.273-1.3,12.888,1.076c0.112,0.101,0.301,0.22,0.494,0.22
				c0.108,0,0.217-0.024,0.314-0.074c0.273-0.141,0.354-0.487,0.179-0.655c-2.871-2.762-9.561-1.957-13.875-1.523
				c0-1.136,0-1.704,0-2.84c3.991-0.425,10.273-1.3,12.888,1.076c0.112,0.101,0.301,0.22,0.494,0.22
				c0.108,0,0.217-0.024,0.314-0.074c0.273-0.141,0.354-0.487,0.179-0.655c-2.871-2.762-9.561-1.957-13.875-1.523
				c0-1.136,0-1.704,0-2.84c3.991-0.425,10.273-1.3,12.888,1.076c0.112,0.101,0.301,0.22,0.494,0.22
				c0.108,0,0.217-0.024,0.314-0.074c0.273-0.141,0.354-0.487,0.179-0.655c-2.871-2.762-9.561-1.957-13.875-1.523
				c0-1.136,0-1.704,0-2.84c3.991-0.425,10.273-1.3,12.888,1.076c0.112,0.101,0.301,0.22,0.494,0.22
				c0.108,0,0.217-0.024,0.314-0.074c0.273-0.141,0.354-0.487,0.179-0.655c-2.871-2.762-9.561-1.957-13.875-1.523
				c0-1.136,0-1.704,0-2.84c3.991-0.425,10.273-1.3,12.888,1.076c0.112,0.101,0.301,0.22,0.494,0.22
				c0.108,0,0.217-0.024,0.314-0.074c0.273-0.141,0.354-0.487,0.179-0.655c-2.871-2.761-9.561-1.957-13.875-1.523
				c0-1.136,0-1.704,0-2.84c3.991-0.425,10.273-1.3,12.888,1.076c0.112,0.101,0.301,0.22,0.494,0.22
				c0.108,0,0.217-0.024,0.314-0.074c0.273-0.141,0.354-0.487,0.179-0.655c-2.871-2.762-9.561-1.957-13.875-1.523
				c0-1.136,0-1.704,0-2.84c3.991-0.425,10.273-1.3,12.888,1.076c0.112,0.101,0.301,0.22,0.494,0.22
				c0.108,0,0.217-0.024,0.314-0.074c0.273-0.141,0.354-0.487,0.179-0.655c-2.871-2.762-9.561-1.957-13.875-1.523
				c0-1.136,0-1.704,0-2.84c3.991-0.425,10.274-1.3,12.888,1.076c0.111,0.101,0.301,0.22,0.494,0.22
				c0.108,0,0.217-0.024,0.314-0.074c0.273-0.141,0.354-0.487,0.179-0.655c-2.871-2.762-9.561-1.957-13.875-1.523
				c0-1.136,0-1.704,0-2.84c3.991-0.425,10.273-1.3,12.888,1.076c0.111,0.101,0.301,0.22,0.494,0.22
				c0.108,0,0.217-0.024,0.314-0.074c0.273-0.141,0.354-0.487,0.179-0.655c-2.871-2.762-9.561-1.957-13.875-1.523
				c0-1.136,0-1.704,0-2.84c3.991-0.425,10.273-1.3,12.888,1.076c0.111,0.101,0.301,0.22,0.494,0.22
				c0.108,0,0.217-0.024,0.314-0.074c0.273-0.141,0.354-0.487,0.179-0.655c-2.871-2.762-9.561-1.957-13.875-1.523
				c0-1.136,0-1.662,0-2.489c3.515-0.273,11.416-0.582,12.888,0.783c0.112,0.104,0.301,0.161,0.494,0.161
				c0.108,0,0.217-0.018,0.314-0.055c0.273-0.103,0.346-0.365,0.179-0.477c-3.248-2.19-9.381-1.435-13.875-1.107
				c0-0.825,0-1.236,0-2.057c3.515-0.271,11.416-0.578,12.888,0.778c0.112,0.103,0.301,0.159,0.494,0.159
				c0.108,0,0.217-0.017,0.314-0.054c0.273-0.102,0.346-0.363,0.179-0.474c-3.256-2.181-9.381-1.427-13.875-1.101
				c0-0.82,0-1.229,0-2.048c3.515-0.27,11.416-0.575,12.888,0.775c0.112,0.102,0.301,0.158,0.494,0.158
				c0.108,0,0.217-0.017,0.314-0.054c0.273-0.101,0.345-0.361,0.179-0.472c-3.26-2.176-9.38-1.422-13.875-1.097
				c0-0.818,0-1.226,0-2.043c3.515-0.27,11.416-0.574,12.888,0.774c0.112,0.102,0.301,0.158,0.494,0.158
				c0.108,0,0.217-0.017,0.314-0.053c0.273-0.101,0.345-0.361,0.179-0.471c-3.263-2.174-9.38-1.42-13.875-1.095
				c0-0.817,0-1.225,0-2.042c3.515-0.27,11.416-0.573,12.888,0.774c0.112,0.102,0.301,0.158,0.494,0.158
				c0.108,0,0.217-0.017,0.314-0.054c0.273-0.101,0.345-0.361,0.179-0.471c-3.262-2.175-9.38-1.421-13.875-1.096
				c0-0.818,0-1.227,0-2.047c3.515-0.271,11.416-0.575,12.888,0.776c0.112,0.103,0.301,0.158,0.494,0.158
				c0.108,0,0.217-0.017,0.314-0.054c0.273-0.102,0.345-0.361,0.179-0.472c-3.26-2.179-9.38-1.426-13.875-1.1
				c0-0.821,0-1.232,0-2.056c3.515-0.273,11.416-0.577,12.888,0.78c0.112,0.103,0.301,0.159,0.494,0.159
				c0.108,0,0.217-0.017,0.314-0.054c0.273-0.102,0.346-0.363,0.179-0.475c-3.254-2.187-9.381-1.434-13.875-1.106
				c0-0.826,0-1.24,0-2.07c3.515-0.274,11.416-0.581,12.888,0.786c0.112,0.104,0.301,0.16,0.494,0.16
				c0.108,0,0.217-0.017,0.314-0.054c0.273-0.103,0.346-0.366,0.179-0.478c-3.247-2.198-9.381-1.445-13.875-1.114
				c0-0.833,0-1.25,0-2.089c3.515-0.277,11.416-0.586,12.888,0.793c0.112,0.105,0.301,0.162,0.494,0.162
				c0.108,0,0.217-0.018,0.314-0.055c0.273-0.104,0.346-0.369,0.179-0.483c-3.237-2.212-9.382-1.46-13.875-1.126
				c0-0.841,0-1.264,0-2.113c3.515-0.281,11.416-0.592,12.888,0.802c0.112,0.106,0.301,0.164,0.494,0.164
				c0.108,0,0.217-0.018,0.314-0.055c0.273-0.105,0.346-0.373,0.179-0.488c-3.225-2.23-9.384-1.478-13.875-1.139
				c0-0.852,0-1.28,0-2.141c3.515-0.285,11.416-0.6,12.888,0.814c0.112,0.107,0.301,0.166,0.494,0.166
				c0.108,0,0.217-0.018,0.314-0.056c0.273-0.106,0.347-0.377,0.179-0.495c-3.233-2.278-9.364-1.591-13.875-1.2
				c0-0.994,0-1.435,0-2.23c3.515-0.239,11.416-0.54,12.888,0.837c0.112,0.105,0.301,0.163,0.494,0.164
				c0.108,0,0.217-0.017,0.314-0.054c0.273-0.103,0.344-0.365,0.179-0.47c-3.263-2.075-9.374-1.365-13.875-1.121
				c0-0.733,0-1.053,0-1.623c3.515-0.117,11.416-0.193,12.888,0.774c0.112,0.073,0.301,0.116,0.494,0.12
				c0.108,0.002,0.217-0.009,0.314-0.033c0.273-0.067,0.341-0.245,0.179-0.318c-3.651-1.647-9.316-1.095-13.875-1.001
				c0-0.52,0-0.742,0-1.133c3.515,0.002,11.416,0.152,12.888,0.809c0.112,0.05,0.301,0.082,0.494,0.088
				c0.108,0.003,0.217-0.001,0.314-0.015c0.273-0.037,0.343-0.149,0.179-0.2c-4.005-1.252-9.274-0.943-13.875-0.996
				c0-0.354,0-0.502,0-0.762c3.515,0.108,11.416,0.465,12.888,0.908c0.112,0.034,0.301,0.059,0.494,0.068
				c0.108,0.005,0.217,0.006,0.314,0.001c0.273-0.014,0.346-0.078,0.179-0.114c-4.266-0.938-9.253-0.889-13.875-1.071
				c0-0.234,0-0.332,0-0.508c3.515,0.192,11.416,0.716,12.888,1.039c0.112,0.024,0.301,0.047,0.494,0.059
				c0.108,0.007,0.217,0.011,0.314,0.012c0.273,0.001,0.348-0.033,0.179-0.062c-4.417-0.762-9.247-0.909-13.875-1.19
				c0-0.162,0-0.232,0-0.371c3.515,0.245,11.416,0.874,12.888,1.165c0.112,0.022,0.301,0.044,0.494,0.06
				c0.108,0.009,0.217,0.015,0.314,0.018c0.273,0.009,0.349-0.016,0.179-0.045c-4.459-0.753-9.245-0.978-13.875-1.315
				c0-0.137,0-0.203,0-0.353c3.515,0.257,11.416,0.91,12.888,1.255c0.112,0.026,0.301,0.051,0.494,0.068
				c0.108,0.009,0.217,0.016,0.314,0.019c0.273,0.008,0.348-0.027,0.179-0.062c-4.394-0.907-9.245-1.074-13.875-1.41
				c0-0.159,0-0.245,0-0.452C56.244,9.17,64.145,9.744,65.617,10.223z M39.386,164.304c2.15,0.128,3.226,0.19,5.376,0.31
				c0,0.318,0,0.461,0,0.735c-2.15-0.103-3.225-0.156-5.376-0.265C39.386,164.795,39.386,164.643,39.386,164.304z M39.386,164.146
				c0-0.351,0-0.542,0-0.973c2.15,0.159,3.226,0.236,5.376,0.386c0,0.401,0,0.578,0,0.907
				C42.612,164.343,41.537,164.279,39.386,164.146z M39.386,162.973c0-0.448,0-0.694,0-1.251c2.15,0.2,3.226,0.297,5.376,0.485
				c0,0.519,0,0.748,0,1.165C42.612,163.218,41.537,163.138,39.386,162.973z M39.386,161.463c0-0.579,0-0.898,0-1.614
				c2.15,0.249,3.226,0.37,5.376,0.606c0,0.672,0,0.97,0,1.511C42.612,161.771,41.537,161.671,39.386,161.463z M39.386,159.516
				c0-0.744,0-1.153,0-2.064c2.15,0.306,3.226,0.455,5.376,0.747c0,0.86,0,1.244,0,1.943
				C42.612,159.898,41.536,159.773,39.386,159.516z M39.386,157.029c0-0.944,0-1.533,0-2.497c2.15,0.316,3.226,0.45,5.376,0.805
				c0,1.083,0,1.571,0,2.463C42.612,157.498,41.536,157.344,39.386,157.029z M39.386,154.093c0-0.958,0-1.427,0-2.35
				c2.15,0.303,3.226,0.455,5.376,0.761c0,0.934,0,1.409,0,2.379C42.612,154.564,41.536,154.406,39.386,154.093z M39.386,151.322
				c0-0.918,0-1.369,0-2.261c2.15,0.292,3.226,0.439,5.376,0.734c0,0.9,0,1.355,0,2.284
				C42.612,151.774,41.536,151.623,39.386,151.322z M39.386,148.655c0-0.888,0-1.326,0-2.194c2.15,0.285,3.226,0.427,5.376,0.714
				c0,0.874,0,1.316,0,2.211C42.612,149.092,41.536,148.946,39.386,148.655z M39.386,146.064c0-0.866,0-1.296,0-2.151
				c2.15,0.28,3.226,0.421,5.376,0.702c0,0.858,0,1.289,0,2.161C42.612,146.491,41.536,146.348,39.386,146.064z M39.386,143.523
				c0-0.854,0-1.279,0-2.13c2.15,0.279,3.226,0.418,5.376,0.697c0,0.851,0,1.277,0,2.133
				C42.612,143.943,41.536,143.803,39.386,143.523z M39.386,141.005c0-0.851,0-1.276,0-2.132c2.15,0.28,3.226,0.42,5.376,0.7
				c0,0.853,0,1.278,0,2.129C42.612,141.423,41.536,141.284,39.386,141.005z M39.386,138.483c0-0.857,0-1.287,0-2.156
				c2.15,0.285,3.226,0.427,5.376,0.71c0,0.864,0,1.293,0,2.147C42.612,138.904,41.536,138.764,39.386,138.483z M39.386,135.93
				c0-0.872,0-1.311,0-2.203c2.15,0.292,3.226,0.438,5.376,0.727c0,0.884,0,1.321,0,2.188
				C42.612,136.358,41.536,136.216,39.386,135.93z M39.386,133.319c0-0.896,0-1.349,0-2.273c2.15,0.303,3.226,0.453,5.376,0.752
				c0,0.914,0,1.363,0,2.251C42.612,133.759,41.537,133.613,39.386,133.319z M39.386,130.623c0-0.929,0-1.401,0-2.365
				c2.15,0.316,3.226,0.473,5.376,0.785c0,0.952,0,1.418,0,2.337C42.612,131.079,41.537,130.928,39.386,130.623z M39.386,127.817
				c0-0.971,0-1.836,0-3.12c2.15,0.421,3.226,0.631,5.376,1.052c0,1.285,0,1.9,0,2.859
				C42.612,128.293,41.537,128.135,39.386,127.817z M39.386,124.11c0-1.285,0-1.927,0-3.212c2.15,0.421,3.226,0.632,5.376,1.053
				c0,1.285,0,1.927,0,3.211C42.612,124.741,41.537,124.531,39.386,124.11z M39.386,120.312c0-1.285,0-1.927,0-3.212
				c2.15,0.421,3.226,0.632,5.376,1.053c0,1.285,0,1.927,0,3.212C42.612,120.944,41.537,120.734,39.386,120.312z M39.386,116.515
				c0-1.285,0-1.927,0-3.212c2.15,0.421,3.226,0.632,5.376,1.052c0,1.285,0,1.927,0,3.212
				C42.612,117.146,41.537,116.936,39.386,116.515z M39.386,112.717c0-1.285,0-1.927,0-3.212c2.15,0.421,3.226,0.632,5.376,1.053
				c0,1.285,0,1.927,0,3.212C42.612,113.349,41.537,113.138,39.386,112.717z M39.386,108.92c0-1.285,0-1.927,0-3.212
				c2.15,0.421,3.226,0.632,5.376,1.052c0,1.285,0,1.927,0,3.212C42.612,109.551,41.537,109.341,39.386,108.92z M39.386,105.122
				c0-1.285,0-1.927,0-3.212c2.15,0.421,3.226,0.632,5.376,1.053c0,1.285,0,1.927,0,3.212
				C42.612,105.753,41.537,105.543,39.386,105.122z M39.386,101.324c0-1.285,0-1.927,0-3.212c2.15,0.421,3.226,0.632,5.376,1.053
				c0,1.285,0,1.927,0,3.212C42.612,101.956,41.537,101.745,39.386,101.324z M39.386,97.527c0-1.285,0-1.927,0-3.212
				c2.15,0.421,3.226,0.632,5.376,1.053c0,1.285,0,1.927,0,3.212C42.612,98.158,41.537,97.948,39.386,97.527z M39.386,93.729
				c0-1.285,0-1.927,0-3.212c2.15,0.421,3.226,0.632,5.376,1.053c0,1.285,0,1.927,0,3.212C42.612,94.361,41.537,94.15,39.386,93.729
				z M39.386,89.931c0-1.285,0-1.927,0-3.212c2.15,0.421,3.226,0.632,5.376,1.053c0,1.285,0,1.927,0,3.212
				C42.612,90.563,41.537,90.352,39.386,89.931z M39.386,86.134c0-1.285,0-1.927,0-3.212c2.15,0.421,3.226,0.632,5.376,1.052
				c0,1.285,0,1.927,0,3.212C42.612,86.765,41.537,86.555,39.386,86.134z M39.386,82.336c0-1.285,0-1.927,0-3.212
				c2.15,0.421,3.226,0.632,5.376,1.053c0,1.285,0,1.927,0,3.212C42.612,82.968,41.537,82.757,39.386,82.336z M39.386,78.538
				c0-1.285,0-1.927,0-3.212c2.15,0.421,3.226,0.632,5.376,1.052c0,1.285,0,1.927,0,3.212C42.612,79.17,41.537,78.959,39.386,78.538
				z M39.386,74.741c0-1.285,0-1.927,0-3.212c2.15,0.421,3.226,0.632,5.376,1.053c0,1.285,0,1.927,0,3.212
				C42.612,75.372,41.537,75.162,39.386,74.741z M39.386,70.943c0-1.285,0-1.927,0-3.212c2.15,0.421,3.226,0.632,5.376,1.053
				c0,1.285,0,1.927,0,3.212C42.612,71.575,41.537,71.364,39.386,70.943z M39.386,67.145c0-1.285,0-1.927,0-3.212
				c2.15,0.421,3.226,0.632,5.376,1.053c0,1.285,0,1.927,0,3.212C42.612,67.777,41.537,67.566,39.386,67.145z M39.386,63.348
				c0-1.285,0-1.927,0-3.212c2.15,0.421,3.226,0.632,5.376,1.053c0,1.285,0,1.927,0,3.212
				C42.612,63.979,41.537,63.769,39.386,63.348z M39.386,59.55c0-1.285,0-1.927,0-3.212c2.15,0.421,3.226,0.632,5.376,1.053
				c0,1.285,0,1.927,0,3.212C42.612,60.182,41.537,59.971,39.386,59.55z M39.386,55.752c0-1.285,0-1.927,0-3.212
				c2.15,0.421,3.226,0.632,5.376,1.053c0,1.285,0,1.927,0,3.212C42.612,56.384,41.537,56.174,39.386,55.752z M39.386,51.955
				c0-1.285,0-1.927,0-3.212c2.15,0.421,3.226,0.632,5.376,1.052c0,1.285,0,1.927,0,3.212
				C42.612,52.586,41.537,52.376,39.386,51.955z M39.386,48.157c0-1.285,0-1.507,0-2.438c2.15,0.305,3.226,0.458,5.376,0.764
				c0,0.933,0,1.442,0,2.727C42.612,48.789,41.537,48.578,39.386,48.157z M39.386,45.294c0-0.931,0-1.395,0-2.322
				c2.15,0.304,3.226,0.456,5.376,0.76c0,0.928,0,1.393,0,2.325C42.612,45.752,41.537,45.599,39.386,45.294z M39.386,42.55
				c0-0.926,0-1.389,0-2.313c2.15,0.303,3.226,0.454,5.376,0.757c0,0.925,0,1.387,0,2.315C42.612,43.005,41.537,42.853,39.386,42.55
				z M39.386,39.816c0-0.924,0-1.385,0-2.309c2.15,0.303,3.226,0.454,5.376,0.757c0,0.924,0,1.385,0,2.31
				C42.612,40.27,41.537,40.118,39.386,39.816z M39.386,37.085c0-0.924,0-1.386,0-2.311c2.15,0.303,3.226,0.455,5.376,0.758
				c0,0.925,0,1.386,0,2.31C42.612,37.539,41.537,37.388,39.386,37.085z M39.386,34.352c0-0.926,0-1.389,0-2.318
				c2.15,0.305,3.226,0.457,5.376,0.761c0,0.928,0,1.39,0,2.315C42.612,34.807,41.537,34.656,39.386,34.352z M39.386,31.611
				c0-0.93,0-1.396,0-2.33c2.15,0.306,3.226,0.459,5.376,0.765c0,0.933,0,1.398,0,2.326C42.612,32.068,41.537,31.915,39.386,31.611z
				 M39.386,28.854c0-0.936,0-1.405,0-2.348c2.15,0.309,3.226,0.463,5.376,0.771c0,0.94,0,1.409,0,2.343
				C42.612,29.314,41.537,29.16,39.386,28.854z M39.386,26.075c0-0.944,0-1.418,0-2.371c2.15,0.312,3.226,0.468,5.376,0.78
				c0,0.95,0,1.423,0,2.364C42.612,26.539,41.537,26.384,39.386,26.075z M39.386,23.269c0-0.955,0-1.434,0-2.4
				c2.15,0.316,3.226,0.474,5.376,0.79c0,0.962,0,1.44,0,2.391C42.612,23.738,41.537,23.581,39.386,23.269z M39.386,20.428
				c0-0.967,0-1.446,0-2.552c2.15,0.366,3.226,0.6,5.376,0.92c0,0.976,0,1.46,0,2.424C42.612,20.903,41.537,20.745,39.386,20.428z
				 M39.386,17.381c0-1.064,0-1.535,0-2.384c2.15,0.303,3.226,0.456,5.376,0.767c0,0.894,0,1.393,0,2.523
				C42.612,17.915,41.537,17.735,39.386,17.381z M39.386,14.618c0-0.812,0-1.167,0-1.799c2.15,0.265,3.226,0.397,5.376,0.661
				c0,0.658,0,1.03,0,1.885C42.612,15.063,41.537,14.914,39.386,14.618z M39.386,12.538c0-0.602,0-0.861,0-1.318
				c2.15,0.246,3.226,0.367,5.376,0.605c0,0.469,0,0.735,0,1.361C42.612,12.929,41.537,12.799,39.386,12.538z M39.386,11.017
				c0-0.433,0-0.616,0-0.939c2.15,0.239,3.226,0.357,5.376,0.587c0,0.325,0,0.51,0,0.953C42.612,11.381,41.537,11.261,39.386,11.017
				z M39.386,9.935c0-0.306,0-0.434,0-0.665c2.15,0.24,3.226,0.358,5.376,0.59c0,0.227,0,0.354,0,0.661
				C42.612,10.291,41.537,10.174,39.386,9.935z M39.386,9.168c0-0.22,0-0.314,0-0.493c2.15,0.243,3.226,0.363,5.376,0.601
				c0,0.176,0,0.267,0,0.483C42.612,9.527,41.537,9.408,39.386,9.168z M39.386,8.594c0-0.175,0-0.255,0-0.425
				c2.15,0.241,3.226,0.363,5.376,0.606c0,0.171,0,0.249,0,0.422C42.612,8.957,41.537,8.836,39.386,8.594z M39.386,8.091
				c0-0.172,0-0.259,0-0.46c2.15,0.23,3.226,0.349,5.376,0.59c0,0.211,0,0.301,0,0.475C42.612,8.453,41.537,8.331,39.386,8.091z
				 M39.386,165.215c2.15,0.106,3.226,0.158,5.376,0.259c0,0.269,0,0.395,0,0.651c-2.15-0.093-3.225-0.141-5.376-0.237
				C39.386,165.627,39.386,165.497,39.386,165.215z M44.762,8.122c-2.15-0.24-3.225-0.358-5.376-0.585c0-0.21,0-0.324,0-0.598
				c2.15,0.203,3.226,0.312,5.376,0.54C44.762,7.777,44.762,7.9,44.762,8.122z M39.386,166.007c2.15,0.095,3.226,0.142,5.376,0.235
				c0,0.256,0,0.382,0,0.653c-2.15-0.095-3.225-0.142-5.376-0.236C39.386,166.392,39.386,166.266,39.386,166.007z M45.933,165.589
				c2.25,0.289,3.375,0.424,5.625,0.696c0,0.242,0,0.362,0,0.619c-2.25-0.285-3.375-0.419-5.625-0.694
				C45.933,165.965,45.933,165.844,45.933,165.589z M45.933,165.442c0-0.26,0-0.395,0-0.692c2.25,0.339,3.375,0.49,5.625,0.78
				c0,0.255,0,0.374,0,0.616C49.308,165.874,48.183,165.738,45.933,165.442z M45.933,164.577c0-0.309,0-0.474,0-0.847
				c2.25,0.423,3.375,0.61,5.625,0.954c0,0.302,0,0.438,0,0.699C49.308,165.086,48.183,164.929,45.933,164.577z M45.933,163.512
				c0-0.391,0-0.604,0-1.086c2.25,0.542,3.375,0.781,5.625,1.216c0,0.383,0,0.552,0,0.867
				C49.308,164.15,48.183,163.955,45.933,163.512z M45.933,162.143c0-0.506,0-0.785,0-1.41c2.25,0.695,3.375,1.004,5.625,1.563
				c0,0.498,0,0.718,0,1.12C49.308,162.962,48.183,162.711,45.933,162.143z M45.933,160.367c0-0.656,0-1.015,0-1.817
				c2.25,0.881,3.375,1.277,5.625,1.996c0,0.647,0,0.935,0,1.459C49.308,161.418,48.183,161.094,45.933,160.367z M45.933,158.081
				c0-0.838,0-1.296,0-2.309c2.25,1.1,3.375,1.599,5.625,2.511c0,0.831,0,1.204,0,1.883C49.308,159.414,48.183,159,45.933,158.081z
				 M45.933,155.188c0-0.938,0-1.398,0-2.302c2.25,0.981,3.375,1.381,5.625,2.52c0,1.049,0,1.523,0,2.392
				C49.308,156.846,48.183,156.206,45.933,155.188z M45.933,152.37c0-0.897,0-1.338,0-2.208c2.25,0.944,3.375,1.422,5.625,2.398
				c0,0.9,0,1.357,0,2.29C49.308,153.838,48.183,153.344,45.933,152.37z M45.933,149.667c0-0.865,0-1.29,0-2.135
				c2.25,0.916,3.375,1.379,5.625,2.319c0,0.866,0,1.305,0,2.198C49.308,151.08,48.183,150.605,45.933,149.667z M45.933,147.05
				c0-0.841,0-1.256,0-2.084c2.25,0.898,3.375,1.349,5.625,2.263c0,0.842,0,1.266,0,2.128
				C49.308,148.422,48.183,147.962,45.933,147.05z M45.933,144.493c0-0.826,0-1.236,0-2.055c2.25,0.889,3.375,1.334,5.625,2.23
				c0,0.826,0,1.241,0,2.079C49.308,145.838,48.183,145.389,45.933,144.493z M45.933,141.969c0-0.819,0-1.228,0-2.048
				c2.25,0.89,3.375,1.333,5.625,2.222c0,0.819,0,1.229,0,2.053C49.308,143.302,48.183,142.858,45.933,141.969z M45.933,139.452
				c0-0.821,0-1.233,0-2.063c2.25,0.9,3.375,1.346,5.625,2.237c0,0.821,0,1.23,0,2.048
				C49.308,140.786,48.183,140.343,45.933,139.452z M45.933,136.914c0-0.833,0-1.251,0-2.099c2.25,0.92,3.375,1.374,5.625,2.276
				c0,0.831,0,1.244,0,2.066C49.308,138.264,48.183,137.817,45.933,136.914z M45.933,134.328c0-0.852,0-1.283,0-2.158
				c2.25,0.949,3.375,1.416,5.625,2.339c0,0.851,0,1.271,0,2.105C49.308,135.709,48.183,135.253,45.933,134.328z M45.933,131.668
				c0-0.881,0-1.327,0-2.238c2.25,0.988,3.375,1.472,5.625,2.425c0,0.879,0,1.311,0,2.166
				C49.308,133.093,48.183,132.624,45.933,131.668z M45.933,128.907c0-0.918,0-1.398,0-2.634c2.25,1.341,3.375,1.836,5.625,2.829
				c0,0.915,0,1.364,0,2.249C49.308,130.391,48.183,129.903,45.933,128.907z M45.933,125.566c0-1.236,0-1.854,0-3.09
				c2.25,1.341,3.375,2.012,5.625,3.353c0,1.236,0,1.825,0,2.748C49.308,127.575,48.183,126.907,45.933,125.566z M45.933,121.768
				c0-1.236,0-1.854,0-3.091c2.25,1.341,3.375,2.012,5.625,3.353c0,1.236,0,1.854,0,3.09
				C49.308,123.78,48.183,123.109,45.933,121.768z M45.933,117.971c0-1.236,0-1.854,0-3.091c2.25,1.341,3.375,2.012,5.625,3.353
				c0,1.236,0,1.854,0,3.091C49.308,119.982,48.183,119.312,45.933,117.971z M45.933,114.173c0-1.236,0-1.854,0-3.091
				c2.25,1.341,3.375,2.012,5.625,3.353c0,1.236,0,1.854,0,3.091C49.308,116.185,48.183,115.514,45.933,114.173z M45.933,110.375
				c0-1.236,0-1.854,0-3.091c2.25,1.341,3.375,2.012,5.625,3.353c0,1.236,0,1.854,0,3.091
				C49.308,112.387,48.183,111.717,45.933,110.375z M45.933,106.578c0-1.236,0-1.854,0-3.091c2.25,1.341,3.375,2.011,5.625,3.353
				c0,1.236,0,1.854,0,3.091C49.308,108.589,48.183,107.919,45.933,106.578z M45.933,102.78c0-1.236,0-1.854,0-3.091
				c2.25,1.341,3.375,2.012,5.625,3.353c0,1.236,0,1.854,0,3.091C49.308,104.792,48.183,104.121,45.933,102.78z M45.933,98.983
				c0-1.236,0-1.854,0-3.091c2.25,1.341,3.375,2.011,5.625,3.353c0,1.236,0,1.854,0,3.091
				C49.308,100.994,48.183,100.324,45.933,98.983z M45.933,95.185c0-1.236,0-1.854,0-3.091c2.25,1.341,3.375,2.012,5.625,3.353
				c0,1.236,0,1.854,0,3.091C49.308,97.196,48.183,96.526,45.933,95.185z M45.933,91.387c0-1.236,0-1.854,0-3.091
				c2.25,1.341,3.375,2.011,5.625,3.353c0,1.236,0,1.854,0,3.091C49.308,93.399,48.183,92.728,45.933,91.387z M45.933,87.59
				c0-1.236,0-1.854,0-3.091c2.25,1.341,3.375,2.012,5.625,3.353c0,1.236,0,1.854,0,3.091C49.308,89.601,48.183,88.931,45.933,87.59
				z M45.933,83.792c0-1.236,0-1.854,0-3.091c2.25,1.341,3.375,2.012,5.625,3.353c0,1.236,0,1.854,0,3.091
				C49.308,85.804,48.183,85.133,45.933,83.792z M45.933,79.994c0-1.236,0-1.854,0-3.091c2.25,1.341,3.375,2.012,5.625,3.353
				c0,1.236,0,1.854,0,3.091C49.308,82.006,48.183,81.335,45.933,79.994z M45.933,76.197c0-1.236,0-1.854,0-3.091
				c2.25,1.341,3.375,2.012,5.625,3.353c0,1.236,0,1.854,0,3.091C49.308,78.208,48.183,77.538,45.933,76.197z M45.933,72.399
				c0-1.236,0-1.854,0-3.091c2.25,1.341,3.375,2.012,5.625,3.353c0,1.236,0,1.854,0,3.091C49.308,74.411,48.183,73.74,45.933,72.399
				z M45.933,68.601c0-1.236,0-1.854,0-3.091c2.25,1.341,3.375,2.012,5.625,3.353c0,1.236,0,1.854,0,3.091
				C49.308,70.613,48.183,69.942,45.933,68.601z M45.933,64.804c0-1.236,0-1.854,0-3.091c2.25,1.341,3.375,2.012,5.625,3.353
				c0,1.236,0,1.854,0,3.091C49.308,66.815,48.183,66.145,45.933,64.804z M45.933,61.006c0-1.236,0-1.854,0-3.091
				c2.25,1.341,3.375,2.012,5.625,3.353c0,1.236,0,1.854,0,3.091C49.308,63.018,48.183,62.347,45.933,61.006z M45.933,57.208
				c0-1.236,0-1.854,0-3.091c2.25,1.341,3.375,2.011,5.625,3.353c0,1.236,0,1.854,0,3.091C49.308,59.22,48.183,58.549,45.933,57.208
				z M45.933,53.411c0-1.236,0-1.854,0-3.091c2.25,1.341,3.375,2.012,5.625,3.353c0,1.236,0,1.854,0,3.091
				C49.308,55.422,48.183,54.752,45.933,53.411z M45.933,49.613c0-1.236,0-1.85,0-2.749c2.25,0.975,3.375,1.67,5.625,3.011
				c0,1.236,0,1.854,0,3.091C49.308,51.625,48.183,50.954,45.933,49.613z M45.933,46.35c0-0.898,0-1.346,0-2.239
				c2.25,0.969,3.375,1.455,5.625,2.429c0,0.898,0,1.391,0,2.628C49.308,47.827,48.183,47.324,45.933,46.35z M45.933,43.6
				c0-0.893,0-1.338,0-2.228c2.25,0.966,3.375,1.449,5.625,2.418c0,0.893,0,1.34,0,2.238C49.308,45.054,48.183,44.569,45.933,43.6z
				 M45.933,40.863c0-0.89,0-1.334,0-2.223c2.25,0.964,3.375,1.446,5.625,2.411c0,0.89,0,1.335,0,2.228
				C49.308,42.311,48.183,41.828,45.933,40.863z M45.933,38.132c0-0.889,0-1.333,0-2.222c2.25,0.965,3.375,1.447,5.625,2.411
				c0,0.889,0,1.333,0,2.223C49.308,39.578,48.183,39.096,45.933,38.132z M45.933,35.401c0-0.89,0-1.335,0-2.227
				c2.25,0.968,3.375,1.451,5.625,2.416c0,0.89,0,1.334,0,2.223C49.308,36.848,48.183,36.366,45.933,35.401z M45.933,32.663
				c0-0.893,0-1.34,0-2.237c2.25,0.973,3.375,1.458,5.625,2.426c0,0.893,0,1.338,0,2.228C49.308,34.115,48.183,33.632,45.933,32.663
				z M45.933,29.913c0-0.898,0-1.348,0-2.252c2.25,0.98,3.375,1.469,5.625,2.442c0,0.898,0,1.345,0,2.239
				C49.308,31.372,48.183,30.887,45.933,29.913z M45.933,27.143c0-0.905,0-1.36,0-2.272c2.25,0.99,3.375,1.483,5.625,2.464
				c0,0.905,0,1.355,0,2.254C49.308,28.614,48.183,28.125,45.933,27.143z M45.933,24.348c0-0.915,0-1.374,0-2.298
				c2.25,1.002,3.375,1.5,5.625,2.492c0,0.914,0,1.369,0,2.275C49.308,25.834,48.183,25.34,45.933,24.348z M45.933,21.521
				c0-0.926,0-1.392,0-2.329c2.25,1.016,3.375,1.521,5.625,2.525c0,0.925,0,1.385,0,2.301
				C49.308,23.025,48.183,22.526,45.933,21.521z M45.933,18.647c0-1.116,0-1.612,0-2.503c2.25,0.982,3.375,1.693,5.625,2.711
				c0,0.939,0,1.405,0,2.333C49.308,20.182,48.183,19.858,45.933,18.647z M45.933,15.648c0-0.844,0-1.213,0-1.869
				c2.25,0.757,3.375,1.166,5.625,2.095c0,0.84,0,1.311,0,2.382C49.308,17.092,48.183,16.583,45.933,15.648z M45.933,13.415
				c0-0.617,0-0.882,0-1.349c2.25,0.59,3.375,0.903,5.625,1.606c0,0.602,0,0.944,0,1.736C49.308,14.525,48.183,14.137,45.933,13.415
				z M45.933,11.807c0-0.436,0-0.62,0-0.942c2.25,0.473,3.375,0.719,5.625,1.257c0,0.415,0,0.652,0,1.216
				C49.308,12.67,48.183,12.372,45.933,11.807z M45.933,10.687c0-0.301,0-0.425,0-0.649c2.25,0.402,3.375,0.605,5.625,1.034
				c0,0.277,0,0.436,0,0.821C49.308,11.38,48.183,11.144,45.933,10.687z M45.933,9.914c0-0.21,0-0.299,0-0.469
				c2.25,0.37,3.375,0.554,5.625,0.923c0,0.19,0,0.295,0,0.552C49.308,10.505,48.183,10.308,45.933,9.914z M45.933,9.349
				c0-0.165,0-0.241,0-0.403c2.25,0.372,3.375,0.554,5.625,0.908c0,0.153,0,0.229,0,0.408C49.308,9.899,48.183,9.717,45.933,9.349z
				 M45.933,8.852c0-0.166,0-0.251,0-0.45c2.25,0.401,3.375,0.599,5.625,0.975c0,0.166,0,0.239,0,0.391
				C49.308,9.411,48.183,9.227,45.933,8.852z M45.933,8.284c0-0.212,0-0.329,0-0.611c2.25,0.451,3.375,0.678,5.625,1.108
				c0,0.23,0,0.324,0,0.498C49.308,8.895,48.183,8.692,45.933,8.284z M51.558,7.913c0,0.344,0,0.484,0,0.732
				c-2.25-0.443-3.375-0.677-5.625-1.139c0-0.303,0-0.475,0-0.886C48.183,7.136,49.308,7.403,51.558,7.913z M44.762,6.411
				c0,0.431,0,0.611,0,0.927c-2.15-0.225-3.225-0.331-5.376-0.528c0-0.289,0-0.452,0-0.841C41.537,6.125,42.612,6.215,44.762,6.411z
				 M39.386,167.498c0-0.307,0-0.446,0-0.717c2.15,0.095,3.226,0.142,5.376,0.238c0,0.277,0,0.421,0,0.743
				C42.612,167.655,41.537,167.602,39.386,167.498z M45.933,166.983c0-0.264,0-0.387,0-0.633c2.25,0.276,3.375,0.411,5.625,0.703
				c0,0.264,0,0.401,0,0.707C49.308,167.425,48.183,167.275,45.933,166.983z"/>
		</g>
		<g clip-path="url(#SVGID_3_)">
			<image overflow="visible" width="3" height="158" xlink:href="AEF598EB.png"  transform="matrix(1 0 0 1 37 9)">
			</image>
		</g>
		<g clip-path="url(#SVGID_3_)">
			<image overflow="visible" width="3" height="158" xlink:href="AEF598EE.png"  transform="matrix(1 0 0 1 33 9)">
			</image>
		</g>
		<g clip-path="url(#SVGID_3_)">
			<image overflow="visible" width="2" height="158" xlink:href="AEF598EF.png"  transform="matrix(1 0 0 1 23 9)">
			</image>
		</g>
		<g clip-path="url(#SVGID_3_)">
			<image overflow="visible" width="2" height="158" xlink:href="AEF598EA.png"  transform="matrix(1 0 0 1 44 9)">
			</image>
		</g>
		<g clip-path="url(#SVGID_3_)">
			<image overflow="visible" width="2" height="158" xlink:href="AEF598E5.png"  transform="matrix(1 0 0 1 51 9)">
			</image>
		</g>
	</g>
</g>
<g>
</g>
<g>
</g>
<g>
</g>
<g>
</g>
<g>
</g>
<g>
</g>
<g>
</g>
<g>
</g>
<g>
</g>
<g>
</g>
<g>
</g>
<g>
</g>
<g>
</g>
<g>
</g>
<g>
</g>
</svg>
